<?xml version="1.0" encoding="utf-8"?>
<!-- Generator: Adobe Illustrator 18.1.1, SVG Export Plug-In . SVG Version: 6.00 Build 0)  -->
<!DOCTYPE svg PUBLIC "-//W3C//DTD SVG 1.1//EN" "http://www.w3.org/Graphics/SVG/1.1/DTD/svg11.dtd">
<svg version="1.1" id="Layer_1" xmlns="http://www.w3.org/2000/svg" xmlns:xlink="http://www.w3.org/1999/xlink" x="0px" y="0px"
	 viewBox="0 0 134 45" enable-background="new 0 0 134 45" xml:space="preserve">
<g>
	<path fill="#F0B400" d="M7.3,20.2c-1.2,0-2.1,0.9-2.1,2.1v11.8c0,0.8-0.6,1.4-1.4,1.4h-1c-0.8,0-1.4-0.6-1.4-1.4V2.9
		c0-0.8,0.6-1.4,1.4-1.4h1c0.8,0,1.4,0.6,1.4,1.4V18c1-0.9,2.3-1.4,3.6-1.4h13.9c1.2,0,2.1-0.9,2.1-2.1V2.9c0-0.8,0.6-1.4,1.4-1.4h1
		c0.8,0,1.4,0.6,1.4,1.4v31.3c0,0.8-0.6,1.4-1.4,1.4h-1c-0.8,0-1.4-0.6-1.4-1.4V18.8c-1,0.9-2.3,1.4-3.6,1.4H7.3z"/>
	<path fill="#F0B400" d="M91.9,2.4c0.2-0.5,0.7-0.9,1.3-0.9h1.1c0.5,0,0.9,0.2,1.2,0.6c0.3,0.4,0.3,0.9,0.1,1.3L82.1,34.9
		c-0.2,0.5-0.7,0.9-1.3,0.9h-1.6c-0.6,0-1.1-0.3-1.3-0.9L64.5,3.4c-0.2-0.4-0.1-0.9,0.1-1.3c0.3-0.4,0.7-0.6,1.2-0.6H67
		c0.6,0,1.1,0.3,1.3,0.9l11.8,28.5L91.9,2.4z"/>
	<path fill="#F0B400" d="M132.4,3.6c0,0.8-0.6,1.4-1.4,1.4h-18c-0.8,0-1.4,0.6-1.4,1.4v10.2h17.2c0.8,0,1.4,0.6,1.4,1.4v0.7
		c0,0.8-0.6,1.4-1.4,1.4h-17.2v10.5c0,0.8,0.6,1.4,1.4,1.4h18.2c0.8,0,1.4,0.6,1.4,1.4v0.7c0,0.8-0.6,1.4-1.4,1.4h-22.1
		c-0.8,0-1.4-0.6-1.4-1.4V2.9c0-0.8,0.6-1.4,1.4-1.4H131c0.8,0,1.4,0.6,1.4,1.4V3.6z"/>
	<path fill="#B0A796" d="M50.9,2.4C50.9,1.3,50.3,1,48,1c-2.3,0-2.9,0.3-2.9,1.4c0,0.7,0.2,1,0.9,1.2v20.1h3.8V3.6
		C50.7,3.4,50.9,3.1,50.9,2.4z"/>
	<linearGradient id="SVGID_1_" gradientUnits="userSpaceOnUse" x1="51.2521" y1="45.2764" x2="51.9601" y2="13.0684">
		<stop  offset="0" style="stop-color:#F0B400"/>
		<stop  offset="1" style="stop-color:#FFFF4B"/>
	</linearGradient>
	<path fill="url(#SVGID_1_)" d="M55.3,29.8c-0.1-1-0.9-3.5-2.5-2.6c-0.7,0.4-0.8,1.4-0.9,2c-0.5,2.2-1.5,2.4-3.2,3.7
		c-2.3,1.9,0.1,3.8,0.1,4.8c0,1.4-1.3,2.3-1.4,4.2c0,0.9,0.8,1.7,1.7,1.7c0.9,0,1.7-0.8,1.7-1.7c0-1.9-1.4-2.8-1.4-4.2
		c0-1.4,0.8-1.4,2.5-2.3C54.5,34.1,55.7,32.2,55.3,29.8z"/>
	<path fill="#B0A796" d="M52.2,24.6h-8.4c-0.4,0-0.7,0.3-0.7,0.7V26c0,0.4,0.3,0.7,0.7,0.7h7.6c0.2-0.2,0.4-0.5,0.7-0.7
		c0.3-0.1,0.5-0.2,0.8-0.3v-0.3C52.9,24.9,52.6,24.6,52.2,24.6z M42.4,31.3v0.6c0,0.4,0.3,0.7,0.7,0.7h4c0.2-0.2,0.4-0.5,0.7-0.7
		c0.4-0.3,0.7-0.6,1.1-0.8c0.3-0.2,0.5-0.4,0.7-0.5h-6.6C42.7,30.6,42.4,30.9,42.4,31.3z M42.3,28.3v0.6c0,0.4,0.3,0.7,0.7,0.7h7.3
		c0.1-0.2,0.1-0.4,0.2-0.7c0-0.1,0-0.2,0.1-0.3c0.1-0.3,0.1-0.7,0.3-1h-7.9C42.7,27.6,42.3,27.9,42.3,28.3z M43.8,33.5
		c-0.4,0-0.7,0.3-0.7,0.7v0.6c0,0.4,0.3,0.7,0.7,0.7h2.7c-0.1-0.6-0.2-1.3,0.1-2H43.8z"/>
</g>
</svg>
